<svg xmlns="http://www.w3.org/2000/svg" viewBox="0 0 200 80" fill="none">
  <path d="M0 70 Q 50 55, 100 70 T 200 70 L200 80 L0 80 Z" fill="#C4A265" />
  <path d="M0 55 Q 50 40, 100 55 T 200 55 L200 70 Q 150 60, 100 70 Q 50 55, 0 70 Z" fill="#D4B07A" />
  <path d="M0 40 Q 50 25, 100 40 T 200 40 L200 55 Q 150 45, 100 55 Q 50 40, 0 55 Z" fill="#E5C995" />
  <g stroke="#4A7C59" stroke-width="1">
    <line x1="20" y1="38" x2="20" y2="46" />
    <line x1="45" y1="40" x2="45" y2="48" />
    <line x1="75" y1="38" x2="75" y2="46" />
    <line x1="110" y1="40" x2="110" y2="48" />
    <line x1="150" y1="38" x2="150" y2="46" />
    <line x1="180" y1="40" x2="180" y2="48" />
  </g>
</svg>
